<svg width="32" height="26" viewBox="0 0 32 26" fill="none" xmlns="http://www.w3.org/2000/svg">
<path d="M29.6 9.75H23.663C24.2975 11.2526 24.019 13.0609 22.813 14.2858L16 21.2052V23.5625C16 24.9087 17.0745 26 18.4 26H29.6C30.9255 26 32 24.9087 32 23.5625V12.1875C32 10.8413 30.9255 9.75 29.6 9.75ZM24 19.0938C23.3375 19.0938 22.8 18.5479 22.8 17.875C22.8 17.2016 23.3375 16.6562 24 16.6562C24.6625 16.6562 25.2 17.2016 25.2 17.875C25.2 18.5479 24.6625 19.0938 24 19.0938ZM21.6815 9.61289L12.935 0.729727C11.977 -0.243242 10.4235 -0.243242 9.4655 0.729727L0.7185 9.61289C-0.2395 10.5859 -0.2395 12.1636 0.7185 13.1366L9.465 22.0203C10.423 22.9932 11.9765 22.9932 12.9345 22.0203L21.6815 13.1371C22.6395 12.1636 22.6395 10.5859 21.6815 9.61289ZM4.8 12.5938C4.1375 12.5938 3.6 12.0479 3.6 11.375C3.6 10.7016 4.1375 10.1562 4.8 10.1562C5.4625 10.1562 6 10.7016 6 11.375C6 12.0479 5.4625 12.5938 4.8 12.5938ZM11.2 19.0938C10.5375 19.0938 10 18.5479 10 17.875C10 17.2016 10.5375 16.6562 11.2 16.6562C11.8625 16.6562 12.4 17.2016 12.4 17.875C12.4 18.5479 11.8625 19.0938 11.2 19.0938ZM11.2 12.5938C10.5375 12.5938 10 12.0479 10 11.375C10 10.7016 10.5375 10.1562 11.2 10.1562C11.8625 10.1562 12.4 10.7016 12.4 11.375C12.4 12.0479 11.8625 12.5938 11.2 12.5938ZM11.2 6.09375C10.5375 6.09375 10 5.54785 10 4.875C10 4.20164 10.5375 3.65625 11.2 3.65625C11.8625 3.65625 12.4 4.20164 12.4 4.875C12.4 5.54785 11.8625 6.09375 11.2 6.09375ZM17.6 12.5938C16.9375 12.5938 16.4 12.0479 16.4 11.375C16.4 10.7016 16.9375 10.1562 17.6 10.1562C18.2625 10.1562 18.8 10.7016 18.8 11.375C18.8 12.0479 18.2625 12.5938 17.6 12.5938Z" fill="white"/>
</svg>
