<svg width="24" height="24" viewBox="0 0 24 24" fill="none" xmlns="http://www.w3.org/2000/svg">
<path d="M23.6435 4.93708C22.8085 5.30708 21.9115 5.55708 20.9685 5.67008C21.9415 5.08787 22.6694 4.17154 23.0165 3.09208C22.1023 3.63507 21.1018 4.01727 20.0585 4.22208C19.3569 3.47294 18.4276 2.9764 17.4148 2.80955C16.4021 2.6427 15.3626 2.81487 14.4577 3.29933C13.5529 3.78379 12.8333 4.55344 12.4107 5.48878C11.988 6.42412 11.886 7.47283 12.1205 8.47208C10.2682 8.37907 8.45613 7.89763 6.80192 7.05898C5.14772 6.22034 3.68834 5.04324 2.5185 3.60408C2.1185 4.29408 1.8885 5.09408 1.8885 5.94608C1.88805 6.71307 2.07693 7.46832 2.43838 8.14481C2.79982 8.8213 3.32266 9.39812 3.9605 9.82408C3.22078 9.80054 2.49737 9.60066 1.8505 9.24108V9.30108C1.85043 10.3768 2.22253 11.4195 2.90368 12.2521C3.58483 13.0847 4.53307 13.656 5.5875 13.8691C4.90128 14.0548 4.18184 14.0821 3.4835 13.9491C3.781 14.8747 4.3605 15.6841 5.14087 16.264C5.92124 16.8439 6.86342 17.1653 7.8355 17.1831C6.18533 18.4785 4.14739 19.1812 2.0495 19.1781C1.67788 19.1782 1.30658 19.1565 0.9375 19.1131C3.06698 20.4823 5.54584 21.2089 8.0775 21.2061C16.6475 21.2061 21.3325 14.1081 21.3325 7.95208C21.3325 7.75208 21.3275 7.55008 21.3185 7.35008C22.2298 6.69105 23.0164 5.87497 23.6415 4.94008L23.6435 4.93708Z" fill="white"/>
</svg>
