<svg width="16" height="13" viewBox="0 0 16 13" fill="none" xmlns="http://www.w3.org/2000/svg">
<path d="M14.8 4.875H11.8315C12.1488 5.62631 12.0095 6.53047 11.4065 7.14289L8 10.6026V11.7812C8 12.4544 8.53725 13 9.2 13H14.8C15.4628 13 16 12.4544 16 11.7812V6.09375C16 5.42064 15.4628 4.875 14.8 4.875ZM12 9.54688C11.6687 9.54688 11.4 9.27393 11.4 8.9375C11.4 8.60082 11.6687 8.32812 12 8.32812C12.3313 8.32812 12.6 8.60082 12.6 8.9375C12.6 9.27393 12.3313 9.54688 12 9.54688ZM10.8408 4.80645L6.4675 0.364863C5.9885 -0.121621 5.21175 -0.121621 4.73275 0.364863L0.35925 4.80645C-0.11975 5.29293 -0.11975 6.08182 0.35925 6.5683L4.7325 11.0101C5.2115 11.4966 5.98825 11.4966 6.46725 11.0101L10.8408 6.56855C11.3197 6.08182 11.3197 5.29293 10.8408 4.80645ZM2.4 6.29688C2.06875 6.29688 1.8 6.02393 1.8 5.6875C1.8 5.35082 2.06875 5.07812 2.4 5.07812C2.73125 5.07812 3 5.35082 3 5.6875C3 6.02393 2.73125 6.29688 2.4 6.29688ZM5.6 9.54688C5.26875 9.54688 5 9.27393 5 8.9375C5 8.60082 5.26875 8.32812 5.6 8.32812C5.93125 8.32812 6.2 8.60082 6.2 8.9375C6.2 9.27393 5.93125 9.54688 5.6 9.54688ZM5.6 6.29688C5.26875 6.29688 5 6.02393 5 5.6875C5 5.35082 5.26875 5.07812 5.6 5.07812C5.93125 5.07812 6.2 5.35082 6.2 5.6875C6.2 6.02393 5.93125 6.29688 5.6 6.29688ZM5.6 3.04688C5.26875 3.04688 5 2.77393 5 2.4375C5 2.10082 5.26875 1.82812 5.6 1.82812C5.93125 1.82812 6.2 2.10082 6.2 2.4375C6.2 2.77393 5.93125 3.04688 5.6 3.04688ZM8.8 6.29688C8.46875 6.29688 8.2 6.02393 8.2 5.6875C8.2 5.35082 8.46875 5.07812 8.8 5.07812C9.13125 5.07812 9.4 5.35082 9.4 5.6875C9.4 6.02393 9.13125 6.29688 8.8 6.29688Z" fill="#2B3B32"/>
</svg>
