<svg width="34" height="34" viewBox="0 0 34 34" fill="none" xmlns="http://www.w3.org/2000/svg">
<path d="M30.2016 28.3721L21.5787 19.7492C22.9168 18.0193 23.6406 15.9043 23.6406 13.6797C23.6406 11.0168 22.6014 8.51992 20.7221 6.6373C18.8428 4.75469 16.3393 3.71875 13.6797 3.71875C11.0201 3.71875 8.5166 4.75801 6.6373 6.6373C4.75469 8.5166 3.71875 11.0168 3.71875 13.6797C3.71875 16.3393 4.75801 18.8428 6.6373 20.7221C8.5166 22.6047 11.0168 23.6406 13.6797 23.6406C15.9043 23.6406 18.016 22.9168 19.7459 21.582L28.3688 30.2016C28.394 30.2269 28.4241 30.2469 28.4571 30.2606C28.4901 30.2743 28.5256 30.2814 28.5613 30.2814C28.5971 30.2814 28.6325 30.2743 28.6656 30.2606C28.6986 30.2469 28.7286 30.2269 28.7539 30.2016L30.2016 28.7572C30.2269 28.7319 30.2469 28.7019 30.2606 28.6689C30.2743 28.6358 30.2814 28.6004 30.2814 28.5646C30.2814 28.5289 30.2743 28.4935 30.2606 28.4604C30.2469 28.4274 30.2269 28.3974 30.2016 28.3721ZM18.9391 18.9391C17.5313 20.3436 15.6652 21.1172 13.6797 21.1172C11.6941 21.1172 9.82813 20.3436 8.42031 18.9391C7.01582 17.5313 6.24219 15.6652 6.24219 13.6797C6.24219 11.6941 7.01582 9.8248 8.42031 8.42031C9.82813 7.01582 11.6941 6.24219 13.6797 6.24219C15.6652 6.24219 17.5346 7.0125 18.9391 8.42031C20.3436 9.82813 21.1172 11.6941 21.1172 13.6797C21.1172 15.6652 20.3436 17.5346 18.9391 18.9391Z" fill="white"/>
</svg>
